<?xml version="1.0" encoding="utf-8"?>
<!-- Generator: Adobe Illustrator 21.0.2, SVG Export Plug-In . SVG Version: 6.00 Build 0)  -->
<svg version="1.1" id="Layer_1" xmlns="http://www.w3.org/2000/svg" xmlns:xlink="http://www.w3.org/1999/xlink" x="0px" y="0px"
	 viewBox="0 0 750 291.1" style="enable-background:new 0 0 750 291.1;" xml:space="preserve">
<style type="text/css">
	.st0{fill:#FFFFFF;}
	.st1{fill:#2AC5F4;}
</style>
<g>
	<path class="st0" d="M223.4,277.1h-2.6v-34.3h-12.2v-2.4h27v2.4h-12.2V277.1z"/>
	<path class="st0" d="M275.2,277.1h-20.5v-36.7h20.5v2.4h-17.9v13.9h16.9v2.4h-16.9v15.7h17.9V277.1z"/>
	<path class="st0" d="M313.3,242.2c-4.7,0-8.4,1.5-11.1,4.4c-2.7,2.9-4,7-4,12.1c0,5.2,1.3,9.3,3.8,12.2c2.5,2.9,6.2,4.3,10.9,4.3
		c3.1,0,6-0.4,8.7-1.2v2.3c-2.5,0.9-5.6,1.3-9.3,1.3c-5.3,0-9.4-1.7-12.4-5c-3-3.3-4.5-8-4.5-13.9c0-3.7,0.7-7,2.2-9.9
		c1.4-2.8,3.5-5,6.2-6.6c2.7-1.5,5.9-2.3,9.4-2.3c3.7,0,6.9,0.7,9.8,2l-1.1,2.3C319.2,242.9,316.3,242.2,313.3,242.2z"/>
	<path class="st0" d="M370.7,277.1h-2.6v-18h-21.9v18h-2.6v-36.7h2.6v16.3h21.9v-16.3h2.6V277.1z"/>
	<path class="st0" d="M422.2,277.1h-2.6l-22.2-32.6h-0.2c0.2,3.9,0.3,6.8,0.3,8.8v23.8H395v-36.7h2.6l22.2,32.5h0.2
		c-0.2-3-0.2-5.9-0.2-8.6v-23.9h2.5V277.1z"/>
	<path class="st0" d="M477.9,258.7c0,5.8-1.5,10.4-4.5,13.8c-3,3.4-7.1,5.1-12.3,5.1c-5.2,0-9.3-1.7-12.3-5.1c-3-3.4-4.5-8-4.5-13.9
		c0-5.8,1.5-10.4,4.5-13.8c3-3.4,7.1-5,12.3-5c5.2,0,9.3,1.7,12.3,5.1C476.5,248.3,477.9,252.9,477.9,258.7z M447.3,258.7
		c0,5.3,1.2,9.3,3.6,12.2c2.4,2.9,5.8,4.3,10.3,4.3c4.5,0,8-1.4,10.3-4.3c2.4-2.8,3.6-6.9,3.6-12.2c0-5.3-1.2-9.3-3.6-12.2
		c-2.4-2.8-5.8-4.2-10.3-4.2c-4.5,0-7.9,1.4-10.3,4.3S447.3,253.5,447.3,258.7z"/>
	<path class="st0" d="M500.2,277.1v-36.7h2.6v34.3h17.9v2.4H500.2z"/>
	<path class="st0" d="M572.2,258.7c0,5.8-1.5,10.4-4.5,13.8c-3,3.4-7.1,5.1-12.3,5.1c-5.2,0-9.3-1.7-12.3-5.1c-3-3.4-4.5-8-4.5-13.9
		c0-5.8,1.5-10.4,4.5-13.8c3-3.4,7.1-5,12.3-5c5.2,0,9.3,1.7,12.3,5.1C570.8,248.3,572.2,252.9,572.2,258.7z M541.6,258.7
		c0,5.3,1.2,9.3,3.6,12.2s5.8,4.3,10.3,4.3c4.5,0,8-1.4,10.3-4.3c2.4-2.8,3.6-6.9,3.6-12.2c0-5.3-1.2-9.3-3.6-12.2
		c-2.4-2.8-5.8-4.2-10.3-4.2c-4.5,0-7.9,1.4-10.3,4.3C542.8,249.5,541.6,253.5,541.6,258.7z"/>
	<path class="st0" d="M609.2,258.6H623v16.7c-3.6,1.5-7.7,2.3-12.2,2.3c-5.9,0-10.4-1.6-13.6-4.9c-3.2-3.3-4.7-7.9-4.7-13.9
		c0-3.7,0.8-7,2.3-9.9c1.6-2.9,3.8-5.1,6.7-6.7c2.9-1.6,6.3-2.4,10-2.4c4.1,0,7.7,0.7,11,2.2l-1.1,2.3c-3.2-1.5-6.6-2.2-10.1-2.2
		c-4.9,0-8.9,1.5-11.8,4.5c-2.9,3-4.3,7-4.3,12.1c0,5.5,1.4,9.7,4.1,12.5c2.8,2.8,6.8,4.2,12.1,4.2c3.5,0,6.4-0.5,8.8-1.4V261h-11.1
		V258.6z"/>
	<path class="st0" d="M646.1,277.1v-36.7h2.6v36.7H646.1z"/>
	<path class="st0" d="M693.4,277.1h-20.5v-36.7h20.5v2.4h-17.9v13.9h16.9v2.4h-16.9v15.7h17.9V277.1z"/>
	<path class="st0" d="M736.2,267.7c0,3.1-1.1,5.5-3.4,7.3c-2.3,1.8-5.4,2.7-9.2,2.7c-4.6,0-8.1-0.5-10.5-1.5v-2.6
		c2.7,1.1,6.1,1.7,10.3,1.7c3.1,0,5.5-0.7,7.3-2.1c1.8-1.4,2.7-3.2,2.7-5.4c0-1.4-0.3-2.5-0.9-3.4c-0.6-0.9-1.6-1.7-2.9-2.5
		c-1.4-0.8-3.3-1.6-5.9-2.4c-3.8-1.3-6.5-2.7-7.9-4.2c-1.5-1.5-2.2-3.5-2.2-6c0-2.7,1.1-5,3.3-6.7c2.2-1.7,5-2.6,8.5-2.6
		c3.5,0,6.8,0.7,9.9,2l-0.9,2.2c-3.1-1.3-6.1-1.9-8.9-1.9c-2.8,0-5,0.6-6.6,1.9c-1.6,1.3-2.5,3-2.5,5.1c0,1.4,0.3,2.5,0.8,3.3
		c0.5,0.9,1.3,1.7,2.5,2.3c1.1,0.7,3.1,1.5,5.9,2.5c2.9,1,5.1,1.9,6.6,2.9s2.5,2,3.2,3.2C735.9,264.6,736.2,266,736.2,267.7z"/>
</g>
<g>
	<g>
		<path class="st1" d="M346.5,143.3c0,42.1-32.7,70.1-71.3,70.1c-39.4,0-72.1-28-72.1-70.1c0-41.8,32.7-69.9,72.1-69.9
			C313.8,73.4,346.5,101.5,346.5,143.3z M306.6,143.3c0-20.6-15.3-34.4-31.4-34.4c-16.8,0-32.1,13.8-32.1,34.4
			c0,20.9,15.3,34.4,32.1,34.4C291.3,177.7,306.6,164.2,306.6,143.3z"/>
		<path class="st1" d="M446.4,76.1v42.3h-7.5c-29,0-44.8,15.3-44.8,49.7v41.5h-41.5V76.8H394v25.4c9.3-15.9,23.6-27.3,44.8-27.3
			C442.5,75,443.2,75.3,446.4,76.1z"/>
		<path class="st1" d="M497.9,37.7c0,13.5-10.1,23.5-24.1,23.5c-14,0-23.8-10.1-23.8-23.5c0-13,9.9-24.1,23.8-24.1
			C487.8,13.6,497.9,24.7,497.9,37.7z M453.1,209.7V76.8h41.5v132.8H453.1z"/>
		<path class="st1" d="M502.1,209.7V19.2h41.5v190.5H502.1z"/>
		<path class="st1" d="M550,209.7V19.2h41.5v190.5H550z"/>
		<path class="st1" d="M742.6,209.7h-41.5v-10.6c-10.1,9.3-23.6,14.6-40.4,14.6c-34.5,0-63.5-28.3-63.5-70.4
			c0-41.8,29-70.4,63.5-70.4c16.8,0,30.3,5.3,40.4,14.6V76.8h41.5V209.7z M701.1,143.3c0-20.4-15-34.4-31.9-34.4
			c-18.1,0-31.4,14-31.4,34.4c0,20.6,13.2,34.4,31.4,34.4C686.1,177.7,701.1,163.9,701.1,143.3z"/>
	</g>
	<path class="st1" d="M205.1,16.5c-1.9-0.4-47.5-9.2-94-9.2c-46.5,0-92.1,8.8-94,9.2c-4.6,0.9-8,5.4-8,10.7v112.7c0,0.3,0,0.5,0,0.8
		c0.3,4.1,7.3,100,98.7,137.7c1.1,0.4,2.2,0.7,3.3,0.7c1.1,0,2.3-0.2,3.3-0.7c91.4-37.7,98.4-133.7,98.7-137.7c0-0.3,0-0.5,0-0.8
		V27.2C213.1,21.9,209.8,17.4,205.1,16.5z M112.8,212.8c-49.4,0-87.8-37.9-87.8-86.7c0-48.5,38.2-86.7,87.1-86.7
		c36.3,0,68.1,17.3,79.6,49.8l-38.7,11.4c-9.5-18.8-25.1-23.8-40.9-23.8c-26.5,0-46.7,21.3-46.7,49.3c0,28.2,20.7,49.5,47.9,49.5
		c21.4,0,37-11.4,43.1-29.7h-49.9v-34.7h89.8c0.7,5.9,1,10.9,1,15.1C197.2,176.7,161.9,212.8,112.8,212.8z"/>
</g>
</svg>
